<svg width="1935" height="400" viewBox="0 0 1935 400" fill="none" xmlns="http://www.w3.org/2000/svg">
<path fill-rule="evenodd" clip-rule="evenodd" d="M367.422 0L300 67.4219V88.6351L388.635 0H367.422ZM300 44.6351L344.635 0H323.422L300 23.4219V44.6351ZM311.422 100L400 11.4219V32.6351L332.635 100H311.422ZM400 76.6351V55.4219L355.422 100H376.635L400 76.6351Z" fill="#F8FAF9"/>
<path d="M260.186 0C260.671 0.000365974 260.914 0.587168 260.57 0.930664L196.932 64.5703L62.0703 199.432L197.932 335.292L197.939 335.283L262.656 400H136.871C135.904 400 134.976 399.616 134.292 398.932L2.21875 266.858C0.798136 265.438 1.61639e-05 263.511 0 261.502V137.36C1.61641e-05 135.351 0.798136 133.425 2.21875 132.004L133.292 0.930664C133.888 0.334856 134.696 0.000109659 135.539 0H260.186ZM396.432 136.792C397.748 135.475 400 136.408 400 138.271V260.503L396.432 264.071L273.391 389.35L208.632 324.591L396.432 136.792Z" fill="#F8FAF9"/>
<path d="M504.8 279V107.88H543.2V177.72H600.32L656.72 107.88H704.48L633.92 193.32L704.48 279H656.72L600.08 208.92H543.2V279H504.8ZM720.106 279V155.4L814.666 155.4C828.586 155.4 838.826 158.92 845.386 165.96C851.946 172.84 855.226 181.96 855.226 193.32V219H819.946V197.64C819.946 188.04 815.146 183.24 805.546 183.24L755.386 183.24V279H720.106ZM942.373 280.2C920.933 280.2 904.213 274.92 892.213 264.36C880.213 253.64 874.213 237.96 874.213 217.32C874.213 196.52 880.213 180.84 892.213 170.28C904.213 159.56 920.933 154.2 942.373 154.2H1002.37C1016.45 154.2 1027.17 157.56 1034.53 164.28C1042.05 170.84 1045.81 180.28 1045.81 192.6C1045.81 217.72 1031.33 230.28 1002.37 230.28H911.653C915.013 245.16 925.253 252.6 942.373 252.6H1039.57V280.2H942.373ZM942.373 181.8C925.893 181.8 915.733 188.76 911.893 202.68H1000.69C1003.89 202.68 1006.37 201.72 1008.13 199.8C1010.05 197.88 1011.01 195.24 1011.01 191.88C1011.01 185.16 1007.57 181.8 1000.69 181.8H942.373ZM1106.39 279L1054.31 155.4H1090.79L1131.11 251.16H1143.11L1183.43 155.4H1219.91L1167.83 279L1106.39 279ZM1268.38 279C1255.42 279 1245.5 275.72 1238.62 269.16C1231.74 262.6 1228.3 253.24 1228.3 241.08C1228.3 229.08 1231.74 219.8 1238.62 213.24C1245.5 206.68 1255.42 203.4 1268.38 203.4H1360.54V197.64C1360.54 187.88 1355.74 183 1346.14 183H1244.38V155.4H1355.26C1369.82 155.4 1380.14 158.76 1386.22 165.48C1392.3 172.04 1395.34 181.32 1395.34 193.32V279H1268.38ZM1274.62 251.4H1360.54V231H1274.62C1271.58 231 1269.18 231.96 1267.42 233.88C1265.82 235.64 1265.02 238.04 1265.02 241.08C1265.02 244.12 1265.82 246.6 1267.42 248.52C1269.18 250.44 1271.58 251.4 1274.62 251.4ZM1421.83 279V155.4H1529.59C1543.67 155.4 1553.91 158.92 1560.31 165.96C1566.87 172.84 1570.15 181.96 1570.15 193.32V279H1535.34V197.4C1535.34 187.8 1530.55 183 1520.95 183H1456.63V279H1421.83ZM1658.62 280.2C1637.18 280.2 1620.46 274.92 1608.46 264.36C1596.46 253.64 1590.46 237.96 1590.46 217.32C1590.46 196.52 1596.46 180.84 1608.46 170.28C1620.46 159.56 1637.18 154.2 1658.62 154.2H1739.02V181.8H1658.62C1648.22 181.8 1640.22 184.68 1634.62 190.44C1629.18 196.2 1626.46 205.16 1626.46 217.32C1626.46 229.32 1629.18 238.2 1634.62 243.96C1640.22 249.72 1648.22 252.6 1658.62 252.6H1741.42V280.2H1658.62ZM1822.69 280.2C1801.25 280.2 1784.53 274.92 1772.53 264.36C1760.53 253.64 1754.53 237.96 1754.53 217.32C1754.53 196.52 1760.53 180.84 1772.53 170.28C1784.53 159.56 1801.25 154.2 1822.69 154.2L1882.69 154.2C1896.77 154.2 1907.49 157.56 1914.85 164.28C1922.37 170.84 1926.13 180.28 1926.13 192.6C1926.13 217.72 1911.65 230.28 1882.69 230.28H1791.97C1795.33 245.16 1805.57 252.6 1822.69 252.6H1919.89V280.2H1822.69ZM1822.69 181.8C1806.21 181.8 1796.05 188.76 1792.21 202.68H1881.01C1884.21 202.68 1886.69 201.72 1888.45 199.8C1890.37 197.88 1891.33 195.24 1891.33 191.88C1891.33 185.16 1887.89 181.8 1881.01 181.8L1822.69 181.8Z" fill="#F8FAF9"/>
</svg>
